<mxfile host="Electron" agent="Mozilla/5.0 (Windows NT 10.0; Win64; x64) AppleWebKit/537.36 (KHTML, like Gecko) draw.io/24.7.17 Chrome/128.0.6613.36 Electron/32.0.1 Safari/537.36" version="24.7.17">
  <diagram name="Page-1" id="-H_mtQnk-PTXWXPvYvuk">
    <mxGraphModel dx="1062" dy="2279" grid="1" gridSize="10" guides="1" tooltips="1" connect="1" arrows="1" fold="1" page="1" pageScale="1" pageWidth="1169" pageHeight="827" math="0" shadow="0">
      <root>
        <mxCell id="0" />
        <mxCell id="1" parent="0" />
        <mxCell id="JikTYuWjfZVvxx-_3Zb4-166" value="" style="rounded=0;whiteSpace=wrap;html=1;" parent="1" vertex="1">
          <mxGeometry x="330" y="-980" width="630" height="530" as="geometry" />
        </mxCell>
        <mxCell id="u2DICDxHQvClA-u2kyfJ-1" value="Задание 6.&amp;nbsp;CDN" style="text;strokeColor=none;align=center;fillColor=none;html=1;verticalAlign=middle;whiteSpace=wrap;rounded=0;fontSize=24;" parent="1" vertex="1">
          <mxGeometry x="860" y="-1160" width="330" height="110" as="geometry" />
        </mxCell>
        <mxCell id="JikTYuWjfZVvxx-_3Zb4-149" value="" style="group" parent="1" vertex="1" connectable="0">
          <mxGeometry x="450" y="-120" width="280" height="120" as="geometry" />
        </mxCell>
        <mxCell id="JikTYuWjfZVvxx-_3Zb4-47" value="" style="rounded=1;whiteSpace=wrap;html=1;" parent="JikTYuWjfZVvxx-_3Zb4-149" vertex="1">
          <mxGeometry width="280" height="120" as="geometry" />
        </mxCell>
        <mxCell id="JikTYuWjfZVvxx-_3Zb4-147" value="API Gateway" style="text;html=1;align=center;verticalAlign=middle;whiteSpace=wrap;rounded=0;fontSize=18;fontStyle=1" parent="JikTYuWjfZVvxx-_3Zb4-149" vertex="1">
          <mxGeometry x="75" y="45" width="120" height="30" as="geometry" />
        </mxCell>
        <mxCell id="JikTYuWjfZVvxx-_3Zb4-151" value="" style="group" parent="1" vertex="1" connectable="0">
          <mxGeometry x="1190" y="-120" width="280" height="120" as="geometry" />
        </mxCell>
        <mxCell id="JikTYuWjfZVvxx-_3Zb4-152" value="" style="rounded=1;whiteSpace=wrap;html=1;" parent="JikTYuWjfZVvxx-_3Zb4-151" vertex="1">
          <mxGeometry width="280" height="120" as="geometry" />
        </mxCell>
        <mxCell id="JikTYuWjfZVvxx-_3Zb4-153" value="Consul" style="text;html=1;align=center;verticalAlign=middle;whiteSpace=wrap;rounded=0;fontSize=18;fontStyle=1" parent="JikTYuWjfZVvxx-_3Zb4-151" vertex="1">
          <mxGeometry x="75" y="45" width="120" height="30" as="geometry" />
        </mxCell>
        <mxCell id="JikTYuWjfZVvxx-_3Zb4-154" style="edgeStyle=orthogonalEdgeStyle;rounded=0;orthogonalLoop=1;jettySize=auto;html=1;" parent="1" source="JikTYuWjfZVvxx-_3Zb4-47" target="JikTYuWjfZVvxx-_3Zb4-152" edge="1">
          <mxGeometry relative="1" as="geometry" />
        </mxCell>
        <mxCell id="JikTYuWjfZVvxx-_3Zb4-155" value="Получение списка сервисов(инстанций)" style="edgeLabel;html=1;align=center;verticalAlign=middle;resizable=0;points=[];fontStyle=1" parent="JikTYuWjfZVvxx-_3Zb4-154" vertex="1" connectable="0">
          <mxGeometry x="0.0348" relative="1" as="geometry">
            <mxPoint x="-1" y="-30" as="offset" />
          </mxGeometry>
        </mxCell>
        <mxCell id="JikTYuWjfZVvxx-_3Zb4-161" value="" style="shape=umlActor;verticalLabelPosition=bottom;verticalAlign=top;html=1;outlineConnect=0;" parent="1" vertex="1">
          <mxGeometry x="870" y="-940" width="65" height="130" as="geometry" />
        </mxCell>
        <mxCell id="JikTYuWjfZVvxx-_3Zb4-168" value="Регион 1" style="text;html=1;align=center;verticalAlign=middle;whiteSpace=wrap;rounded=0;fontSize=18;fontStyle=1" parent="1" vertex="1">
          <mxGeometry x="360" y="-940" width="120" height="30" as="geometry" />
        </mxCell>
        <mxCell id="JikTYuWjfZVvxx-_3Zb4-162" style="edgeStyle=orthogonalEdgeStyle;rounded=0;orthogonalLoop=1;jettySize=auto;html=1;entryX=0.536;entryY=0;entryDx=0;entryDy=0;entryPerimeter=0;" parent="1" source="JikTYuWjfZVvxx-_3Zb4-161" target="JikTYuWjfZVvxx-_3Zb4-47" edge="1">
          <mxGeometry relative="1" as="geometry">
            <Array as="points">
              <mxPoint x="600" y="-180" />
              <mxPoint x="600" y="-180" />
            </Array>
          </mxGeometry>
        </mxCell>
        <mxCell id="JikTYuWjfZVvxx-_3Zb4-178" value="Запрос динамического контента" style="edgeLabel;html=1;align=center;verticalAlign=middle;resizable=0;points=[];fontStyle=1" parent="JikTYuWjfZVvxx-_3Zb4-162" vertex="1" connectable="0">
          <mxGeometry x="-0.0855" y="2" relative="1" as="geometry">
            <mxPoint as="offset" />
          </mxGeometry>
        </mxCell>
        <mxCell id="JikTYuWjfZVvxx-_3Zb4-169" value="" style="edgeStyle=orthogonalEdgeStyle;rounded=0;orthogonalLoop=1;jettySize=auto;html=1;" parent="1" source="JikTYuWjfZVvxx-_3Zb4-161" target="JikTYuWjfZVvxx-_3Zb4-164" edge="1">
          <mxGeometry relative="1" as="geometry" />
        </mxCell>
        <mxCell id="JikTYuWjfZVvxx-_3Zb4-179" value="Запрос статического контента" style="edgeLabel;html=1;align=center;verticalAlign=middle;resizable=0;points=[];fontStyle=1" parent="JikTYuWjfZVvxx-_3Zb4-169" vertex="1" connectable="0">
          <mxGeometry x="-0.131" y="5" relative="1" as="geometry">
            <mxPoint as="offset" />
          </mxGeometry>
        </mxCell>
        <mxCell id="JikTYuWjfZVvxx-_3Zb4-164" value="&lt;font size=&quot;1&quot; style=&quot;&quot;&gt;&lt;b style=&quot;font-size: 16px;&quot;&gt;CDN&lt;/b&gt;&lt;/font&gt;" style="ellipse;shape=cloud;whiteSpace=wrap;html=1;fillColor=#99ffff;" parent="1" vertex="1">
          <mxGeometry x="690" y="-710" width="200" height="140" as="geometry" />
        </mxCell>
        <mxCell id="JikTYuWjfZVvxx-_3Zb4-180" style="edgeStyle=orthogonalEdgeStyle;rounded=0;orthogonalLoop=1;jettySize=auto;html=1;exitX=0.75;exitY=0;exitDx=0;exitDy=0;entryX=0.55;entryY=0.95;entryDx=0;entryDy=0;entryPerimeter=0;" parent="1" source="JikTYuWjfZVvxx-_3Zb4-47" target="JikTYuWjfZVvxx-_3Zb4-164" edge="1">
          <mxGeometry relative="1" as="geometry" />
        </mxCell>
        <mxCell id="JikTYuWjfZVvxx-_3Zb4-181" value="Репликация контента для региона 1" style="edgeLabel;html=1;align=center;verticalAlign=middle;resizable=0;points=[];fontStyle=1" parent="JikTYuWjfZVvxx-_3Zb4-180" vertex="1" connectable="0">
          <mxGeometry x="-0.0751" y="-1" relative="1" as="geometry">
            <mxPoint x="99" y="-46" as="offset" />
          </mxGeometry>
        </mxCell>
        <mxCell id="JikTYuWjfZVvxx-_3Zb4-183" value="" style="rounded=0;whiteSpace=wrap;html=1;" parent="1" vertex="1">
          <mxGeometry x="1123" y="-980" width="630" height="530" as="geometry" />
        </mxCell>
        <mxCell id="JikTYuWjfZVvxx-_3Zb4-184" value="" style="shape=umlActor;verticalLabelPosition=bottom;verticalAlign=top;html=1;outlineConnect=0;" parent="1" vertex="1">
          <mxGeometry x="1663" y="-940" width="65" height="130" as="geometry" />
        </mxCell>
        <mxCell id="JikTYuWjfZVvxx-_3Zb4-185" value="Регион 1" style="text;html=1;align=center;verticalAlign=middle;whiteSpace=wrap;rounded=0;fontSize=18;fontStyle=1" parent="1" vertex="1">
          <mxGeometry x="1153" y="-940" width="120" height="30" as="geometry" />
        </mxCell>
        <mxCell id="JikTYuWjfZVvxx-_3Zb4-187" value="" style="edgeStyle=orthogonalEdgeStyle;rounded=0;orthogonalLoop=1;jettySize=auto;html=1;" parent="1" source="JikTYuWjfZVvxx-_3Zb4-184" target="JikTYuWjfZVvxx-_3Zb4-189" edge="1">
          <mxGeometry relative="1" as="geometry" />
        </mxCell>
        <mxCell id="JikTYuWjfZVvxx-_3Zb4-188" value="Запрос статического контента" style="edgeLabel;html=1;align=center;verticalAlign=middle;resizable=0;points=[];fontStyle=1" parent="JikTYuWjfZVvxx-_3Zb4-187" vertex="1" connectable="0">
          <mxGeometry x="-0.131" y="5" relative="1" as="geometry">
            <mxPoint as="offset" />
          </mxGeometry>
        </mxCell>
        <mxCell id="JikTYuWjfZVvxx-_3Zb4-189" value="&lt;font size=&quot;1&quot; style=&quot;&quot;&gt;&lt;b style=&quot;font-size: 16px;&quot;&gt;CDN&lt;/b&gt;&lt;/font&gt;" style="ellipse;shape=cloud;whiteSpace=wrap;html=1;fillColor=#99FFFF;" parent="1" vertex="1">
          <mxGeometry x="1483" y="-710" width="200" height="140" as="geometry" />
        </mxCell>
        <mxCell id="JikTYuWjfZVvxx-_3Zb4-191" style="edgeStyle=orthogonalEdgeStyle;rounded=0;orthogonalLoop=1;jettySize=auto;html=1;entryX=0.534;entryY=0.04;entryDx=0;entryDy=0;entryPerimeter=0;" parent="1" source="JikTYuWjfZVvxx-_3Zb4-184" target="JikTYuWjfZVvxx-_3Zb4-47" edge="1">
          <mxGeometry relative="1" as="geometry">
            <Array as="points">
              <mxPoint x="1360" y="-875" />
              <mxPoint x="1360" y="-260" />
              <mxPoint x="600" y="-260" />
            </Array>
          </mxGeometry>
        </mxCell>
        <mxCell id="JikTYuWjfZVvxx-_3Zb4-192" value="Запрос динамического контента" style="edgeLabel;html=1;align=center;verticalAlign=middle;resizable=0;points=[];fontStyle=1" parent="JikTYuWjfZVvxx-_3Zb4-191" vertex="1" connectable="0">
          <mxGeometry x="-0.4595" y="1" relative="1" as="geometry">
            <mxPoint as="offset" />
          </mxGeometry>
        </mxCell>
        <mxCell id="JikTYuWjfZVvxx-_3Zb4-194" style="edgeStyle=orthogonalEdgeStyle;rounded=0;orthogonalLoop=1;jettySize=auto;html=1;exitX=0.75;exitY=0;exitDx=0;exitDy=0;entryX=0.55;entryY=0.95;entryDx=0;entryDy=0;entryPerimeter=0;" parent="1" source="JikTYuWjfZVvxx-_3Zb4-47" target="JikTYuWjfZVvxx-_3Zb4-189" edge="1">
          <mxGeometry relative="1" as="geometry" />
        </mxCell>
        <mxCell id="JikTYuWjfZVvxx-_3Zb4-195" value="Репликация контента для региона 2" style="edgeLabel;html=1;align=center;verticalAlign=middle;resizable=0;points=[];fontStyle=1" parent="JikTYuWjfZVvxx-_3Zb4-194" vertex="1" connectable="0">
          <mxGeometry x="0.7316" relative="1" as="geometry">
            <mxPoint as="offset" />
          </mxGeometry>
        </mxCell>
        <mxCell id="cQZFcFk24G75QHKVD_d1-9" style="edgeStyle=orthogonalEdgeStyle;rounded=0;orthogonalLoop=1;jettySize=auto;html=1;entryX=0.75;entryY=1;entryDx=0;entryDy=0;" edge="1" parent="1" source="zA23MoTUsTF4_91t8viU-3" target="JikTYuWjfZVvxx-_3Zb4-152">
          <mxGeometry relative="1" as="geometry">
            <Array as="points">
              <mxPoint x="840" y="165" />
              <mxPoint x="840" y="230" />
              <mxPoint x="1400" y="230" />
            </Array>
          </mxGeometry>
        </mxCell>
        <mxCell id="cQZFcFk24G75QHKVD_d1-11" style="edgeStyle=orthogonalEdgeStyle;rounded=0;orthogonalLoop=1;jettySize=auto;html=1;exitX=0;exitY=0.5;exitDx=0;exitDy=0;entryX=0.5;entryY=0;entryDx=0;entryDy=0;" edge="1" parent="1" source="zA23MoTUsTF4_91t8viU-3" target="u2DICDxHQvClA-u2kyfJ-52">
          <mxGeometry relative="1" as="geometry">
            <Array as="points">
              <mxPoint x="640" y="165" />
              <mxPoint x="640" y="250" />
              <mxPoint x="520" y="250" />
            </Array>
          </mxGeometry>
        </mxCell>
        <mxCell id="cQZFcFk24G75QHKVD_d1-12" value="&lt;b&gt;1. Запрос данных из кэша&lt;/b&gt;" style="edgeLabel;html=1;align=center;verticalAlign=middle;resizable=0;points=[];" vertex="1" connectable="0" parent="cQZFcFk24G75QHKVD_d1-11">
          <mxGeometry x="-0.0741" y="1" relative="1" as="geometry">
            <mxPoint x="-47" y="-21" as="offset" />
          </mxGeometry>
        </mxCell>
        <mxCell id="cQZFcFk24G75QHKVD_d1-17" style="edgeStyle=orthogonalEdgeStyle;rounded=0;orthogonalLoop=1;jettySize=auto;html=1;exitX=0.5;exitY=1;exitDx=0;exitDy=0;entryX=1;entryY=0.5;entryDx=0;entryDy=0;" edge="1" parent="1" source="zA23MoTUsTF4_91t8viU-3" target="u2DICDxHQvClA-u2kyfJ-52">
          <mxGeometry relative="1" as="geometry" />
        </mxCell>
        <mxCell id="zA23MoTUsTF4_91t8viU-3" value="pymongo-api" style="rounded=1;whiteSpace=wrap;html=1;fillColor=#dae8fc;strokeColor=#6c8ebf;" parent="1" vertex="1">
          <mxGeometry x="650" y="120" width="180" height="90" as="geometry" />
        </mxCell>
        <mxCell id="u2DICDxHQvClA-u2kyfJ-52" value="&lt;b&gt;Redis&lt;/b&gt;" style="whiteSpace=wrap;html=1;aspect=fixed;fillColor=#f8cecc;strokeColor=#b85450;" parent="1" vertex="1">
          <mxGeometry x="480" y="310" width="80" height="80" as="geometry" />
        </mxCell>
        <mxCell id="cQZFcFk24G75QHKVD_d1-1" value="" style="group" vertex="1" connectable="0" parent="1">
          <mxGeometry x="640" y="400" width="680" height="400" as="geometry" />
        </mxCell>
        <mxCell id="u2DICDxHQvClA-u2kyfJ-12" value="" style="rounded=1;whiteSpace=wrap;html=1;container=0;fillColor=#E4FBE4;" parent="cQZFcFk24G75QHKVD_d1-1" vertex="1">
          <mxGeometry width="680" height="400" as="geometry" />
        </mxCell>
        <mxCell id="u2DICDxHQvClA-u2kyfJ-4" value="Роутер" style="shape=cylinder3;whiteSpace=wrap;html=1;boundedLbl=1;backgroundOutline=1;size=15;container=0;" parent="cQZFcFk24G75QHKVD_d1-1" vertex="1">
          <mxGeometry x="285" y="24" width="60" height="80" as="geometry" />
        </mxCell>
        <mxCell id="u2DICDxHQvClA-u2kyfJ-5" value="Конфиг. сервер" style="shape=cylinder3;whiteSpace=wrap;html=1;boundedLbl=1;backgroundOutline=1;size=15;container=0;" parent="cQZFcFk24G75QHKVD_d1-1" vertex="1">
          <mxGeometry x="475" y="24" width="60" height="80" as="geometry" />
        </mxCell>
        <mxCell id="u2DICDxHQvClA-u2kyfJ-6" style="edgeStyle=orthogonalEdgeStyle;rounded=0;orthogonalLoop=1;jettySize=auto;html=1;entryX=0;entryY=0.5;entryDx=0;entryDy=0;entryPerimeter=0;" parent="cQZFcFk24G75QHKVD_d1-1" source="u2DICDxHQvClA-u2kyfJ-4" target="u2DICDxHQvClA-u2kyfJ-5" edge="1">
          <mxGeometry relative="1" as="geometry" />
        </mxCell>
        <mxCell id="u2DICDxHQvClA-u2kyfJ-14" value="Кластер MongoDB" style="text;html=1;align=center;verticalAlign=middle;whiteSpace=wrap;rounded=0;container=0;" parent="cQZFcFk24G75QHKVD_d1-1" vertex="1">
          <mxGeometry x="100" y="40" width="60" height="30" as="geometry" />
        </mxCell>
        <mxCell id="u2DICDxHQvClA-u2kyfJ-25" value="" style="rounded=1;whiteSpace=wrap;html=1;" parent="cQZFcFk24G75QHKVD_d1-1" vertex="1">
          <mxGeometry x="40" y="210" width="260" height="160" as="geometry" />
        </mxCell>
        <mxCell id="u2DICDxHQvClA-u2kyfJ-16" value="&lt;font style=&quot;font-size: 11px;&quot;&gt;Secondary&lt;/font&gt;" style="shape=cylinder3;whiteSpace=wrap;html=1;boundedLbl=1;backgroundOutline=1;size=15;container=0;" parent="cQZFcFk24G75QHKVD_d1-1" vertex="1">
          <mxGeometry x="85" y="310" width="60" height="50" as="geometry" />
        </mxCell>
        <mxCell id="u2DICDxHQvClA-u2kyfJ-21" style="edgeStyle=orthogonalEdgeStyle;rounded=0;orthogonalLoop=1;jettySize=auto;html=1;exitX=1;exitY=0;exitDx=0;exitDy=30;exitPerimeter=0;" parent="cQZFcFk24G75QHKVD_d1-1" source="u2DICDxHQvClA-u2kyfJ-2" target="u2DICDxHQvClA-u2kyfJ-17" edge="1">
          <mxGeometry relative="1" as="geometry" />
        </mxCell>
        <mxCell id="u2DICDxHQvClA-u2kyfJ-34" value="&lt;font style=&quot;font-size: 7px;&quot;&gt;Репликация&lt;/font&gt;" style="edgeLabel;html=1;align=center;verticalAlign=middle;resizable=0;points=[];" parent="u2DICDxHQvClA-u2kyfJ-21" connectable="0" vertex="1">
          <mxGeometry x="-0.0533" y="2" relative="1" as="geometry">
            <mxPoint x="12" y="-8" as="offset" />
          </mxGeometry>
        </mxCell>
        <mxCell id="u2DICDxHQvClA-u2kyfJ-2" value="Primary" style="shape=cylinder3;whiteSpace=wrap;html=1;boundedLbl=1;backgroundOutline=1;size=15;container=0;" parent="cQZFcFk24G75QHKVD_d1-1" vertex="1">
          <mxGeometry x="140" y="250" width="60" height="50" as="geometry" />
        </mxCell>
        <mxCell id="u2DICDxHQvClA-u2kyfJ-17" value="&lt;span style=&quot;font-size: 11px;&quot;&gt;Secondary&lt;/span&gt;" style="shape=cylinder3;whiteSpace=wrap;html=1;boundedLbl=1;backgroundOutline=1;size=15;container=0;" parent="cQZFcFk24G75QHKVD_d1-1" vertex="1">
          <mxGeometry x="200" y="310" width="60" height="50" as="geometry" />
        </mxCell>
        <mxCell id="u2DICDxHQvClA-u2kyfJ-18" style="edgeStyle=orthogonalEdgeStyle;rounded=0;orthogonalLoop=1;jettySize=auto;html=1;exitX=0;exitY=0;exitDx=0;exitDy=30;exitPerimeter=0;entryX=0.5;entryY=0;entryDx=0;entryDy=0;entryPerimeter=0;" parent="cQZFcFk24G75QHKVD_d1-1" source="u2DICDxHQvClA-u2kyfJ-2" target="u2DICDxHQvClA-u2kyfJ-16" edge="1">
          <mxGeometry relative="1" as="geometry" />
        </mxCell>
        <mxCell id="u2DICDxHQvClA-u2kyfJ-33" value="&lt;font style=&quot;font-size: 7px;&quot;&gt;Репликация&lt;/font&gt;" style="edgeLabel;html=1;align=center;verticalAlign=middle;resizable=0;points=[];" parent="u2DICDxHQvClA-u2kyfJ-18" connectable="0" vertex="1">
          <mxGeometry x="-0.3309" relative="1" as="geometry">
            <mxPoint x="-22" y="-10" as="offset" />
          </mxGeometry>
        </mxCell>
        <mxCell id="u2DICDxHQvClA-u2kyfJ-24" value="" style="endArrow=classic;startArrow=classic;html=1;rounded=0;entryX=0;entryY=0;entryDx=0;entryDy=30;entryPerimeter=0;exitX=1;exitY=0;exitDx=0;exitDy=30;exitPerimeter=0;" parent="cQZFcFk24G75QHKVD_d1-1" source="u2DICDxHQvClA-u2kyfJ-16" target="u2DICDxHQvClA-u2kyfJ-17" edge="1">
          <mxGeometry width="50" height="50" relative="1" as="geometry">
            <mxPoint x="125" y="220" as="sourcePoint" />
            <mxPoint x="175" y="170" as="targetPoint" />
          </mxGeometry>
        </mxCell>
        <mxCell id="u2DICDxHQvClA-u2kyfJ-31" value="&lt;font style=&quot;font-size: 7px;&quot;&gt;Heartbeat&lt;/font&gt;" style="edgeLabel;html=1;align=center;verticalAlign=middle;resizable=0;points=[];" parent="u2DICDxHQvClA-u2kyfJ-24" connectable="0" vertex="1">
          <mxGeometry x="-0.0685" y="1" relative="1" as="geometry">
            <mxPoint x="-1" y="11" as="offset" />
          </mxGeometry>
        </mxCell>
        <mxCell id="u2DICDxHQvClA-u2kyfJ-26" value="Шард-1" style="text;html=1;align=center;verticalAlign=middle;whiteSpace=wrap;rounded=0;" parent="cQZFcFk24G75QHKVD_d1-1" vertex="1">
          <mxGeometry x="40" y="220" width="60" height="30" as="geometry" />
        </mxCell>
        <mxCell id="u2DICDxHQvClA-u2kyfJ-29" style="edgeStyle=orthogonalEdgeStyle;rounded=0;orthogonalLoop=1;jettySize=auto;html=1;exitX=1;exitY=0;exitDx=0;exitDy=20;exitPerimeter=0;entryX=0.5;entryY=1;entryDx=0;entryDy=0;entryPerimeter=0;" parent="cQZFcFk24G75QHKVD_d1-1" source="u2DICDxHQvClA-u2kyfJ-16" target="u2DICDxHQvClA-u2kyfJ-2" edge="1">
          <mxGeometry relative="1" as="geometry" />
        </mxCell>
        <mxCell id="u2DICDxHQvClA-u2kyfJ-30" style="edgeStyle=orthogonalEdgeStyle;rounded=0;orthogonalLoop=1;jettySize=auto;html=1;exitX=0;exitY=0;exitDx=0;exitDy=20;exitPerimeter=0;entryX=0.5;entryY=1;entryDx=0;entryDy=0;entryPerimeter=0;" parent="cQZFcFk24G75QHKVD_d1-1" source="u2DICDxHQvClA-u2kyfJ-17" target="u2DICDxHQvClA-u2kyfJ-2" edge="1">
          <mxGeometry relative="1" as="geometry" />
        </mxCell>
        <mxCell id="u2DICDxHQvClA-u2kyfJ-8" style="edgeStyle=orthogonalEdgeStyle;rounded=0;orthogonalLoop=1;jettySize=auto;html=1;exitX=0.5;exitY=1;exitDx=0;exitDy=0;exitPerimeter=0;entryX=0.5;entryY=0;entryDx=0;entryDy=0;entryPerimeter=0;" parent="cQZFcFk24G75QHKVD_d1-1" source="u2DICDxHQvClA-u2kyfJ-4" target="u2DICDxHQvClA-u2kyfJ-2" edge="1">
          <mxGeometry relative="1" as="geometry">
            <Array as="points">
              <mxPoint x="315" y="180" />
              <mxPoint x="170" y="180" />
            </Array>
          </mxGeometry>
        </mxCell>
        <mxCell id="u2DICDxHQvClA-u2kyfJ-32" style="edgeStyle=orthogonalEdgeStyle;rounded=0;orthogonalLoop=1;jettySize=auto;html=1;exitX=0.5;exitY=0;exitDx=0;exitDy=0;exitPerimeter=0;entryX=0.5;entryY=1;entryDx=0;entryDy=0;entryPerimeter=0;" parent="cQZFcFk24G75QHKVD_d1-1" source="u2DICDxHQvClA-u2kyfJ-2" target="u2DICDxHQvClA-u2kyfJ-4" edge="1">
          <mxGeometry relative="1" as="geometry">
            <Array as="points">
              <mxPoint x="170" y="180" />
              <mxPoint x="315" y="180" />
            </Array>
          </mxGeometry>
        </mxCell>
        <mxCell id="u2DICDxHQvClA-u2kyfJ-35" value="" style="rounded=1;whiteSpace=wrap;html=1;" parent="cQZFcFk24G75QHKVD_d1-1" vertex="1">
          <mxGeometry x="310" y="210" width="260" height="160" as="geometry" />
        </mxCell>
        <mxCell id="u2DICDxHQvClA-u2kyfJ-36" value="&lt;font style=&quot;font-size: 11px;&quot;&gt;Secondary&lt;/font&gt;" style="shape=cylinder3;whiteSpace=wrap;html=1;boundedLbl=1;backgroundOutline=1;size=15;container=0;" parent="cQZFcFk24G75QHKVD_d1-1" vertex="1">
          <mxGeometry x="355" y="310" width="60" height="50" as="geometry" />
        </mxCell>
        <mxCell id="u2DICDxHQvClA-u2kyfJ-37" style="edgeStyle=orthogonalEdgeStyle;rounded=0;orthogonalLoop=1;jettySize=auto;html=1;exitX=1;exitY=0;exitDx=0;exitDy=30;exitPerimeter=0;" parent="cQZFcFk24G75QHKVD_d1-1" source="u2DICDxHQvClA-u2kyfJ-39" target="u2DICDxHQvClA-u2kyfJ-40" edge="1">
          <mxGeometry relative="1" as="geometry" />
        </mxCell>
        <mxCell id="u2DICDxHQvClA-u2kyfJ-38" value="&lt;font style=&quot;font-size: 7px;&quot;&gt;Репликация&lt;/font&gt;" style="edgeLabel;html=1;align=center;verticalAlign=middle;resizable=0;points=[];" parent="u2DICDxHQvClA-u2kyfJ-37" connectable="0" vertex="1">
          <mxGeometry x="-0.0533" y="2" relative="1" as="geometry">
            <mxPoint x="12" y="-8" as="offset" />
          </mxGeometry>
        </mxCell>
        <mxCell id="u2DICDxHQvClA-u2kyfJ-39" value="Primary" style="shape=cylinder3;whiteSpace=wrap;html=1;boundedLbl=1;backgroundOutline=1;size=15;container=0;" parent="cQZFcFk24G75QHKVD_d1-1" vertex="1">
          <mxGeometry x="410" y="250" width="60" height="50" as="geometry" />
        </mxCell>
        <mxCell id="u2DICDxHQvClA-u2kyfJ-40" value="&lt;span style=&quot;font-size: 11px;&quot;&gt;Secondary&lt;/span&gt;" style="shape=cylinder3;whiteSpace=wrap;html=1;boundedLbl=1;backgroundOutline=1;size=15;container=0;" parent="cQZFcFk24G75QHKVD_d1-1" vertex="1">
          <mxGeometry x="470" y="310" width="60" height="50" as="geometry" />
        </mxCell>
        <mxCell id="u2DICDxHQvClA-u2kyfJ-41" style="edgeStyle=orthogonalEdgeStyle;rounded=0;orthogonalLoop=1;jettySize=auto;html=1;exitX=0;exitY=0;exitDx=0;exitDy=30;exitPerimeter=0;entryX=0.5;entryY=0;entryDx=0;entryDy=0;entryPerimeter=0;" parent="cQZFcFk24G75QHKVD_d1-1" source="u2DICDxHQvClA-u2kyfJ-39" target="u2DICDxHQvClA-u2kyfJ-36" edge="1">
          <mxGeometry relative="1" as="geometry" />
        </mxCell>
        <mxCell id="u2DICDxHQvClA-u2kyfJ-42" value="&lt;font style=&quot;font-size: 7px;&quot;&gt;Репликация&lt;/font&gt;" style="edgeLabel;html=1;align=center;verticalAlign=middle;resizable=0;points=[];" parent="u2DICDxHQvClA-u2kyfJ-41" connectable="0" vertex="1">
          <mxGeometry x="-0.3309" relative="1" as="geometry">
            <mxPoint x="-22" y="-10" as="offset" />
          </mxGeometry>
        </mxCell>
        <mxCell id="u2DICDxHQvClA-u2kyfJ-43" value="" style="endArrow=classic;startArrow=classic;html=1;rounded=0;entryX=0;entryY=0;entryDx=0;entryDy=30;entryPerimeter=0;exitX=1;exitY=0;exitDx=0;exitDy=30;exitPerimeter=0;" parent="cQZFcFk24G75QHKVD_d1-1" source="u2DICDxHQvClA-u2kyfJ-36" target="u2DICDxHQvClA-u2kyfJ-40" edge="1">
          <mxGeometry width="50" height="50" relative="1" as="geometry">
            <mxPoint x="395" y="220" as="sourcePoint" />
            <mxPoint x="445" y="170" as="targetPoint" />
          </mxGeometry>
        </mxCell>
        <mxCell id="u2DICDxHQvClA-u2kyfJ-44" value="&lt;font style=&quot;font-size: 7px;&quot;&gt;Heartbeat&lt;/font&gt;" style="edgeLabel;html=1;align=center;verticalAlign=middle;resizable=0;points=[];" parent="u2DICDxHQvClA-u2kyfJ-43" connectable="0" vertex="1">
          <mxGeometry x="-0.0685" y="1" relative="1" as="geometry">
            <mxPoint x="-1" y="11" as="offset" />
          </mxGeometry>
        </mxCell>
        <mxCell id="u2DICDxHQvClA-u2kyfJ-45" value="Шард-2" style="text;html=1;align=center;verticalAlign=middle;whiteSpace=wrap;rounded=0;" parent="cQZFcFk24G75QHKVD_d1-1" vertex="1">
          <mxGeometry x="310" y="220" width="60" height="30" as="geometry" />
        </mxCell>
        <mxCell id="u2DICDxHQvClA-u2kyfJ-46" style="edgeStyle=orthogonalEdgeStyle;rounded=0;orthogonalLoop=1;jettySize=auto;html=1;exitX=1;exitY=0;exitDx=0;exitDy=20;exitPerimeter=0;entryX=0.5;entryY=1;entryDx=0;entryDy=0;entryPerimeter=0;" parent="cQZFcFk24G75QHKVD_d1-1" source="u2DICDxHQvClA-u2kyfJ-36" target="u2DICDxHQvClA-u2kyfJ-39" edge="1">
          <mxGeometry relative="1" as="geometry" />
        </mxCell>
        <mxCell id="u2DICDxHQvClA-u2kyfJ-47" style="edgeStyle=orthogonalEdgeStyle;rounded=0;orthogonalLoop=1;jettySize=auto;html=1;exitX=0;exitY=0;exitDx=0;exitDy=20;exitPerimeter=0;entryX=0.5;entryY=1;entryDx=0;entryDy=0;entryPerimeter=0;" parent="cQZFcFk24G75QHKVD_d1-1" source="u2DICDxHQvClA-u2kyfJ-40" target="u2DICDxHQvClA-u2kyfJ-39" edge="1">
          <mxGeometry relative="1" as="geometry" />
        </mxCell>
        <mxCell id="u2DICDxHQvClA-u2kyfJ-48" style="edgeStyle=orthogonalEdgeStyle;rounded=0;orthogonalLoop=1;jettySize=auto;html=1;entryX=0.5;entryY=0;entryDx=0;entryDy=0;entryPerimeter=0;" parent="cQZFcFk24G75QHKVD_d1-1" source="u2DICDxHQvClA-u2kyfJ-4" target="u2DICDxHQvClA-u2kyfJ-39" edge="1">
          <mxGeometry relative="1" as="geometry">
            <Array as="points">
              <mxPoint x="315" y="180" />
              <mxPoint x="440" y="180" />
            </Array>
          </mxGeometry>
        </mxCell>
        <mxCell id="u2DICDxHQvClA-u2kyfJ-50" style="edgeStyle=orthogonalEdgeStyle;rounded=0;orthogonalLoop=1;jettySize=auto;html=1;exitX=1;exitY=0.5;exitDx=0;exitDy=0;entryX=0.5;entryY=1;entryDx=0;entryDy=0;entryPerimeter=0;" parent="cQZFcFk24G75QHKVD_d1-1" source="u2DICDxHQvClA-u2kyfJ-35" target="u2DICDxHQvClA-u2kyfJ-5" edge="1">
          <mxGeometry relative="1" as="geometry" />
        </mxCell>
        <mxCell id="u2DICDxHQvClA-u2kyfJ-51" style="edgeStyle=orthogonalEdgeStyle;rounded=0;orthogonalLoop=1;jettySize=auto;html=1;exitX=0;exitY=0.5;exitDx=0;exitDy=0;entryX=0.145;entryY=1;entryDx=0;entryDy=-4.35;entryPerimeter=0;" parent="cQZFcFk24G75QHKVD_d1-1" source="u2DICDxHQvClA-u2kyfJ-25" target="u2DICDxHQvClA-u2kyfJ-5" edge="1">
          <mxGeometry relative="1" as="geometry" />
        </mxCell>
        <mxCell id="cQZFcFk24G75QHKVD_d1-8" style="edgeStyle=orthogonalEdgeStyle;rounded=0;orthogonalLoop=1;jettySize=auto;html=1;entryX=0.75;entryY=1;entryDx=0;entryDy=0;" edge="1" parent="1" source="cQZFcFk24G75QHKVD_d1-2" target="JikTYuWjfZVvxx-_3Zb4-152">
          <mxGeometry relative="1" as="geometry">
            <Array as="points">
              <mxPoint x="1250" y="165" />
              <mxPoint x="1250" y="230" />
              <mxPoint x="1400" y="230" />
            </Array>
          </mxGeometry>
        </mxCell>
        <mxCell id="cQZFcFk24G75QHKVD_d1-10" value="&lt;b&gt;Регистрация инстанции&lt;/b&gt;" style="edgeLabel;html=1;align=center;verticalAlign=middle;resizable=0;points=[];" vertex="1" connectable="0" parent="cQZFcFk24G75QHKVD_d1-8">
          <mxGeometry x="-0.2041" relative="1" as="geometry">
            <mxPoint x="-20" y="-20" as="offset" />
          </mxGeometry>
        </mxCell>
        <mxCell id="cQZFcFk24G75QHKVD_d1-13" style="edgeStyle=orthogonalEdgeStyle;rounded=0;orthogonalLoop=1;jettySize=auto;html=1;exitX=0;exitY=0.5;exitDx=0;exitDy=0;entryX=0.5;entryY=0;entryDx=0;entryDy=0;" edge="1" parent="1" source="cQZFcFk24G75QHKVD_d1-2" target="u2DICDxHQvClA-u2kyfJ-52">
          <mxGeometry relative="1" as="geometry">
            <Array as="points">
              <mxPoint x="950" y="165" />
              <mxPoint x="950" y="250" />
              <mxPoint x="520" y="250" />
            </Array>
          </mxGeometry>
        </mxCell>
        <mxCell id="cQZFcFk24G75QHKVD_d1-15" style="edgeStyle=orthogonalEdgeStyle;rounded=0;orthogonalLoop=1;jettySize=auto;html=1;exitX=0.25;exitY=1;exitDx=0;exitDy=0;entryX=0.5;entryY=0;entryDx=0;entryDy=0;entryPerimeter=0;" edge="1" parent="1" source="cQZFcFk24G75QHKVD_d1-2" target="u2DICDxHQvClA-u2kyfJ-4">
          <mxGeometry relative="1" as="geometry">
            <mxPoint x="1010.0000000000005" y="340" as="targetPoint" />
            <Array as="points">
              <mxPoint x="1094" y="300" />
              <mxPoint x="955" y="300" />
            </Array>
          </mxGeometry>
        </mxCell>
        <mxCell id="cQZFcFk24G75QHKVD_d1-18" style="edgeStyle=orthogonalEdgeStyle;rounded=0;orthogonalLoop=1;jettySize=auto;html=1;exitX=0.5;exitY=1;exitDx=0;exitDy=0;entryX=1;entryY=0.5;entryDx=0;entryDy=0;" edge="1" parent="1" source="cQZFcFk24G75QHKVD_d1-2" target="u2DICDxHQvClA-u2kyfJ-52">
          <mxGeometry relative="1" as="geometry" />
        </mxCell>
        <mxCell id="cQZFcFk24G75QHKVD_d1-19" value="&lt;b&gt;3. Запись новых данных в кэш&lt;/b&gt;" style="edgeLabel;html=1;align=center;verticalAlign=middle;resizable=0;points=[];" vertex="1" connectable="0" parent="cQZFcFk24G75QHKVD_d1-18">
          <mxGeometry x="0.622" y="-1" relative="1" as="geometry">
            <mxPoint x="-46" y="-9" as="offset" />
          </mxGeometry>
        </mxCell>
        <mxCell id="cQZFcFk24G75QHKVD_d1-2" value="pymongo-api" style="rounded=1;whiteSpace=wrap;html=1;fillColor=#dae8fc;strokeColor=#6c8ebf;" vertex="1" parent="1">
          <mxGeometry x="1049" y="120" width="180" height="90" as="geometry" />
        </mxCell>
        <mxCell id="cQZFcFk24G75QHKVD_d1-3" style="edgeStyle=orthogonalEdgeStyle;rounded=0;orthogonalLoop=1;jettySize=auto;html=1;entryX=0.458;entryY=-0.003;entryDx=0;entryDy=0;entryPerimeter=0;" edge="1" parent="1" source="JikTYuWjfZVvxx-_3Zb4-47" target="zA23MoTUsTF4_91t8viU-3">
          <mxGeometry relative="1" as="geometry" />
        </mxCell>
        <mxCell id="cQZFcFk24G75QHKVD_d1-5" style="edgeStyle=orthogonalEdgeStyle;rounded=0;orthogonalLoop=1;jettySize=auto;html=1;entryX=0.5;entryY=0;entryDx=0;entryDy=0;" edge="1" parent="1" source="JikTYuWjfZVvxx-_3Zb4-47" target="cQZFcFk24G75QHKVD_d1-2">
          <mxGeometry relative="1" as="geometry">
            <Array as="points">
              <mxPoint x="590" y="60" />
              <mxPoint x="1139" y="60" />
            </Array>
          </mxGeometry>
        </mxCell>
        <mxCell id="cQZFcFk24G75QHKVD_d1-7" value="&lt;b&gt;Вызов сервиса (инстанции)&lt;/b&gt;" style="edgeLabel;html=1;align=center;verticalAlign=middle;resizable=0;points=[];" vertex="1" connectable="0" parent="cQZFcFk24G75QHKVD_d1-5">
          <mxGeometry x="0.1061" y="1" relative="1" as="geometry">
            <mxPoint y="-19" as="offset" />
          </mxGeometry>
        </mxCell>
        <mxCell id="cQZFcFk24G75QHKVD_d1-14" style="edgeStyle=orthogonalEdgeStyle;rounded=0;orthogonalLoop=1;jettySize=auto;html=1;exitX=0.25;exitY=1;exitDx=0;exitDy=0;" edge="1" parent="1" source="zA23MoTUsTF4_91t8viU-3" target="u2DICDxHQvClA-u2kyfJ-4">
          <mxGeometry relative="1" as="geometry">
            <Array as="points">
              <mxPoint x="695" y="300" />
              <mxPoint x="955" y="300" />
            </Array>
          </mxGeometry>
        </mxCell>
        <mxCell id="cQZFcFk24G75QHKVD_d1-16" value="&lt;b&gt;2. Если данных нет в кэше, то запрос в БД&lt;/b&gt;" style="edgeLabel;html=1;align=center;verticalAlign=middle;resizable=0;points=[];" vertex="1" connectable="0" parent="cQZFcFk24G75QHKVD_d1-14">
          <mxGeometry x="0.3779" relative="1" as="geometry">
            <mxPoint x="43" y="-17" as="offset" />
          </mxGeometry>
        </mxCell>
        <mxCell id="cQZFcFk24G75QHKVD_d1-21" value="Инстанция-2" style="text;whiteSpace=wrap;html=1;" vertex="1" parent="1">
          <mxGeometry x="1049" y="120" width="77" height="30" as="geometry" />
        </mxCell>
        <mxCell id="cQZFcFk24G75QHKVD_d1-22" value="Инстанция-1" style="text;whiteSpace=wrap;html=1;" vertex="1" parent="1">
          <mxGeometry x="650" y="120" width="77" height="30" as="geometry" />
        </mxCell>
      </root>
    </mxGraphModel>
  </diagram>
</mxfile>
